<svg id="visual" viewBox="0 0 1920 400" width="1920" height="400" xmlns="http://www.w3.org/2000/svg" xmlns:xlink="http://www.w3.org/1999/xlink" version="1.1"><path d="M0 138L32 140.2C64 142.3 128 146.7 192 151.3C256 156 320 161 384 161.8C448 162.7 512 159.3 576 154.5C640 149.7 704 143.3 768 138.8C832 134.3 896 131.7 960 137.5C1024 143.3 1088 157.7 1152 162.7C1216 167.7 1280 163.3 1344 155.5C1408 147.7 1472 136.3 1536 129.7C1600 123 1664 121 1728 126.7C1792 132.3 1856 145.7 1888 152.3L1920 159L1920 0L1888 0C1856 0 1792 0 1728 0C1664 0 1600 0 1536 0C1472 0 1408 0 1344 0C1280 0 1216 0 1152 0C1088 0 1024 0 960 0C896 0 832 0 768 0C704 0 640 0 576 0C512 0 448 0 384 0C320 0 256 0 192 0C128 0 64 0 32 0L0 0Z" fill="#fef0d9"></path><path d="M0 131L32 125.8C64 120.7 128 110.3 192 112C256 113.7 320 127.3 384 130.7C448 134 512 127 576 121.8C640 116.7 704 113.3 768 115.2C832 117 896 124 960 124.8C1024 125.7 1088 120.3 1152 117.7C1216 115 1280 115 1344 114.7C1408 114.3 1472 113.7 1536 115.8C1600 118 1664 123 1728 120.5C1792 118 1856 108 1888 103L1920 98L1920 0L1888 0C1856 0 1792 0 1728 0C1664 0 1600 0 1536 0C1472 0 1408 0 1344 0C1280 0 1216 0 1152 0C1088 0 1024 0 960 0C896 0 832 0 768 0C704 0 640 0 576 0C512 0 448 0 384 0C320 0 256 0 192 0C128 0 64 0 32 0L0 0Z" fill="#f2c99b"></path><path d="M0 91L32 92.5C64 94 128 97 192 100.3C256 103.7 320 107.3 384 107.7C448 108 512 105 576 104C640 103 704 104 768 100C832 96 896 87 960 86.7C1024 86.3 1088 94.7 1152 98.2C1216 101.7 1280 100.3 1344 98C1408 95.7 1472 92.3 1536 94C1600 95.7 1664 102.3 1728 103.5C1792 104.7 1856 100.3 1888 98.2L1920 96L1920 0L1888 0C1856 0 1792 0 1728 0C1664 0 1600 0 1536 0C1472 0 1408 0 1344 0C1280 0 1216 0 1152 0C1088 0 1024 0 960 0C896 0 832 0 768 0C704 0 640 0 576 0C512 0 448 0 384 0C320 0 256 0 192 0C128 0 64 0 32 0L0 0Z" fill="#e99f65"></path><path d="M0 61L32 63.8C64 66.7 128 72.3 192 72.8C256 73.3 320 68.7 384 64.5C448 60.3 512 56.7 576 59C640 61.3 704 69.7 768 68.3C832 67 896 56 960 54.7C1024 53.3 1088 61.7 1152 64C1216 66.3 1280 62.7 1344 60C1408 57.3 1472 55.7 1536 58.8C1600 62 1664 70 1728 69.2C1792 68.3 1856 58.7 1888 53.8L1920 49L1920 0L1888 0C1856 0 1792 0 1728 0C1664 0 1600 0 1536 0C1472 0 1408 0 1344 0C1280 0 1216 0 1152 0C1088 0 1024 0 960 0C896 0 832 0 768 0C704 0 640 0 576 0C512 0 448 0 384 0C320 0 256 0 192 0C128 0 64 0 32 0L0 0Z" fill="#e1703a"></path><path d="M0 20L32 19.3C64 18.7 128 17.3 192 21.7C256 26 320 36 384 38C448 40 512 34 576 29.7C640 25.3 704 22.7 768 23.5C832 24.3 896 28.7 960 30.7C1024 32.7 1088 32.3 1152 31.5C1216 30.7 1280 29.3 1344 27.7C1408 26 1472 24 1536 26.2C1600 28.3 1664 34.7 1728 38.8C1792 43 1856 45 1888 46L1920 47L1920 0L1888 0C1856 0 1792 0 1728 0C1664 0 1600 0 1536 0C1472 0 1408 0 1344 0C1280 0 1216 0 1152 0C1088 0 1024 0 960 0C896 0 832 0 768 0C704 0 640 0 576 0C512 0 448 0 384 0C320 0 256 0 192 0C128 0 64 0 32 0L0 0Z" fill="#d7301f"></path></svg>