<svg id="visual" viewBox="0 0 1920 400" width="1920" height="400" xmlns="http://www.w3.org/2000/svg" xmlns:xlink="http://www.w3.org/1999/xlink" version="1.1"><path d="M0 260L32 257.8C64 255.7 128 251.3 192 246.7C256 242 320 237 384 236.2C448 235.3 512 238.7 576 243.5C640 248.3 704 254.7 768 259.2C832 263.7 896 266.3 960 260.5C1024 254.7 1088 240.3 1152 235.3C1216 230.3 1280 234.7 1344 242.5C1408 250.3 1472 261.7 1536 268.3C1600 275 1664 277 1728 271.3C1792 265.7 1856 252.3 1888 245.7L1920 239L1920 401L1888 401C1856 401 1792 401 1728 401C1664 401 1600 401 1536 401C1472 401 1408 401 1344 401C1280 401 1216 401 1152 401C1088 401 1024 401 960 401C896 401 832 401 768 401C704 401 640 401 576 401C512 401 448 401 384 401C320 401 256 401 192 401C128 401 64 401 32 401L0 401Z" fill="#fef0d9"></path><path d="M0 267L32 272.2C64 277.3 128 287.7 192 286C256 284.3 320 270.7 384 267.3C448 264 512 271 576 276.2C640 281.3 704 284.7 768 282.8C832 281 896 274 960 273.2C1024 272.3 1088 277.7 1152 280.3C1216 283 1280 283 1344 283.3C1408 283.7 1472 284.3 1536 282.2C1600 280 1664 275 1728 277.5C1792 280 1856 290 1888 295L1920 300L1920 401L1888 401C1856 401 1792 401 1728 401C1664 401 1600 401 1536 401C1472 401 1408 401 1344 401C1280 401 1216 401 1152 401C1088 401 1024 401 960 401C896 401 832 401 768 401C704 401 640 401 576 401C512 401 448 401 384 401C320 401 256 401 192 401C128 401 64 401 32 401L0 401Z" fill="#f2c99b"></path><path d="M0 307L32 305.5C64 304 128 301 192 297.7C256 294.3 320 290.7 384 290.3C448 290 512 293 576 294C640 295 704 294 768 298C832 302 896 311 960 311.3C1024 311.7 1088 303.3 1152 299.8C1216 296.3 1280 297.7 1344 300C1408 302.3 1472 305.7 1536 304C1600 302.3 1664 295.7 1728 294.5C1792 293.3 1856 297.7 1888 299.8L1920 302L1920 401L1888 401C1856 401 1792 401 1728 401C1664 401 1600 401 1536 401C1472 401 1408 401 1344 401C1280 401 1216 401 1152 401C1088 401 1024 401 960 401C896 401 832 401 768 401C704 401 640 401 576 401C512 401 448 401 384 401C320 401 256 401 192 401C128 401 64 401 32 401L0 401Z" fill="#e99f65"></path><path d="M0 337L32 334.2C64 331.3 128 325.7 192 325.2C256 324.7 320 329.3 384 333.5C448 337.7 512 341.3 576 339C640 336.7 704 328.3 768 329.7C832 331 896 342 960 343.3C1024 344.7 1088 336.3 1152 334C1216 331.7 1280 335.3 1344 338C1408 340.7 1472 342.3 1536 339.2C1600 336 1664 328 1728 328.8C1792 329.7 1856 339.3 1888 344.2L1920 349L1920 401L1888 401C1856 401 1792 401 1728 401C1664 401 1600 401 1536 401C1472 401 1408 401 1344 401C1280 401 1216 401 1152 401C1088 401 1024 401 960 401C896 401 832 401 768 401C704 401 640 401 576 401C512 401 448 401 384 401C320 401 256 401 192 401C128 401 64 401 32 401L0 401Z" fill="#e1703a"></path><path d="M0 378L32 378.7C64 379.3 128 380.7 192 376.3C256 372 320 362 384 360C448 358 512 364 576 368.3C640 372.7 704 375.3 768 374.5C832 373.7 896 369.3 960 367.3C1024 365.3 1088 365.7 1152 366.5C1216 367.3 1280 368.7 1344 370.3C1408 372 1472 374 1536 371.8C1600 369.7 1664 363.3 1728 359.2C1792 355 1856 353 1888 352L1920 351L1920 401L1888 401C1856 401 1792 401 1728 401C1664 401 1600 401 1536 401C1472 401 1408 401 1344 401C1280 401 1216 401 1152 401C1088 401 1024 401 960 401C896 401 832 401 768 401C704 401 640 401 576 401C512 401 448 401 384 401C320 401 256 401 192 401C128 401 64 401 32 401L0 401Z" fill="#d7301f"></path></svg>